# xmcd
#
# Track frame offsets:
#	150
#	8661
#	21206
#	36555
#	48478
#	64416
#	75842
#	85272
#	97754
#	109788
#	123570
#	135296
#	149822
#	161334
#	177047
#
# Disc length: 2518 seconds
#
# Revision: 1
# Processed by: cddbd v1.5.1PL0 Copyright (c) Steve Scherf et al.
# Submitted via: audiograbber 1.83.01
#
DISCID=bc09d40f
DTITLE=Ronny - Ronny's Hitbox CD3
DYEAR=1900
DGENRE=Schlager
TTITLE0=Muss I denn
TTITLE1=Oh Shenandoah
TTITLE2=La Paloma
TTITLE3=Aloha Oe
TTITLE4=Wolgalied (Hast Du da droben vergessen)
TTITLE5=Ein Stern geht auf
TTITLE6=Oh, Susanna
TTITLE7=Träumendes Mädchen
TTITLE8=Glory, Glory Halleluja
TTITLE9=Wenn Du einsam bist
TTITLE10=Anja, Anja
TTITLE11=Swanee River
TTITLE12=Sweet Marylie
TTITLE13=Keiner kann den Kreis durchbrechen
TTITLE14=Wenn der Tag zu Ende geht
EXTD=
EXTT0=
EXTT1=
EXTT2=
EXTT3=
EXTT4=
EXTT5=
EXTT6=
EXTT7=
EXTT8=
EXTT9=
EXTT10=
EXTT11=
EXTT12=
EXTT13=
EXTT14=
PLAYORDER=
